<svg class="icon" xmlns="http://www.w3.org/2000/svg" viewBox="0 0 50 50"><path d="m35.16 14.66-1.91-1.92c.24-1-.04-2.1-.82-2.89a3.054 3.054 0 0 0-2.84-.83c-.18.04-.34.15-.43.31a.7.7 0 0 0-.07.53c.17.6 0 1.25-.44 1.69L23.7 16.5c-.58.58-.9 1.35-.9 2.17 0 .82.32 1.59.9 2.17.75.75 1.81 1.06 2.84.83.18-.04.34-.15.43-.31.05-.09.09-.19.09-.29l.75.75m4.61-7.61c.06-.06.13-.13.18-.2l1.51 1.51-.63.63-1.5-1.5.44-.44zm-2.01 2.02.63-.63 1.5 1.5-.63.63-1.5-1.5zm.55 2.45-.63.63-1.5-1.5.63-.63 1.5 1.5zm-4.43-.47c-.3.3-.53.66-.69 1.05l-.03.09c-.12.34-.18.7-.18 1.06a1.73 1.73 0 0 1-.99-.49c-.33-.33-.51-.76-.51-1.23 0-.46.18-.9.51-1.23l4.95-4.95c.59-.59.9-1.38.9-2.19.37.05.72.22.99.49.68.68.68 1.78 0 2.45l-2.49 2.49-.01.01-.01.01-2.44 2.44zm.74 1.2c.06-.09.13-.17.21-.25l.4-.4 1.5 1.5-.63.63-1.48-1.48zm5.11-.26" /><path d="M13.57 41.04c-.52 0-1.05-.2-1.44-.6-.39-.39-.6-.9-.6-1.44s.21-1.06.6-1.44L34.99 14.7c.77-.77 2.12-.77 2.89 0 .8.8.8 2.09 0 2.89L15.01 40.44c-.4.4-.92.6-1.44.6zm22.86-25.73c-.21 0-.42.08-.58.24L12.99 38.42c-.16.16-.24.36-.24.58s.09.43.24.58c.32.32.84.32 1.17 0l22.86-22.86c.32-.32.32-.84 0-1.17a.858.858 0 0 0-.59-.24z" /></svg>