<svg class="icon" xmlns="http://www.w3.org/2000/svg" viewBox="0 0 50 50"><path d="M42.83 24c0-3.17-2.45-5.78-5.55-6.04v-.9c0-.25-.19-.47-.44-.5-.1-.01-.84-.11-1.95-.25a.448.448 0 0 0-.2-.04c-.03 0-.06 0-.08.01-2.61-.31-6.92-.78-9.6-.78s-6.99.46-9.6.78c-.03 0-.05-.01-.08-.01-.07 0-.14.01-.2.04-1.11.13-1.85.24-1.95.25-.25.03-.44.25-.44.5v.9c-3.1.26-5.55 2.87-5.55 6.04s2.45 5.78 5.55 6.04v.9c0 .2.12.39.31.47.09.04.81.35 1.9.75.09.11.23.18.38.18.03 0 .05 0 .08-.01 2.51.91 6.54 2.17 9.61 2.17 4.71 0 11.67-2.97 11.97-3.09.19-.08.31-.26.31-.47v-.9c3.08-.26 5.53-2.87 5.53-6.04zm-8.65-.44c-1.48.21-6.42.86-9.18.86s-7.69-.66-9.18-.86v-2.52h18.36v2.52zm-18.36 1.03c1.65.23 6.4.85 9.18.85s7.52-.62 9.18-.85v2.5c-1.39.39-6.41 1.74-9.18 1.74-2.77 0-7.79-1.35-9.18-1.74v-2.5zm18.36-7.34v2.77H15.82v-2.77c2.62-.31 6.67-.73 9.18-.73s6.56.42 9.18.73zM8.19 24c0-2.61 1.99-4.76 4.54-5.02v10.04A5.054 5.054 0 0 1 8.19 24zm5.55-6.49c.26-.03.62-.08 1.07-.13V31.03c-.46-.18-.83-.32-1.07-.42v-13.1zM36.26 30.6c-1.4.57-7.3 2.88-11.26 2.88-2.86 0-6.72-1.2-9.18-2.09v-3.26c1.72.48 6.41 1.7 9.18 1.7s7.46-1.22 9.18-1.7v3.14c0 .28.23.51.51.51s.51-.23.51-.51v-13.9c.44.05.81.1 1.07.13l-.01 13.1zm1.01-1.58V18.98c2.54.26 4.54 2.41 4.54 5.02 0 2.61-1.99 4.76-4.54 5.02z" /></svg>