<svg class="icon" xmlns="http://www.w3.org/2000/svg" viewBox="0 0 50 50"><path d="m25 42.37-.21-.07C12.61 38.17 9.58 27.54 8.64 11.72l-.05-.81.8.1c8.67 1.13 12.02-.18 15.16-2.99l.45-.39.44.4c3.15 2.81 6.49 4.12 15.16 2.99l.8-.1-.05.81c-.94 15.82-3.97 26.45-16.15 30.58l-.2.06zM10.02 12.44c.96 14.73 3.89 24.65 14.98 28.52 11.09-3.87 14.02-13.79 14.98-28.52-8.17.96-11.83-.37-14.98-3.03-3.15 2.66-6.81 3.99-14.98 3.03z"/><path d="M18.57 24.99v-.29c0-.51.27-.8.8-.8h4.64v-5.18c0-.51.27-.8.8-.8h.39c.51 0 .8.29.8.8v5.18h4.62c.51 0 .8.29.8.8v.29c0 .53-.29.8-.8.8H26v5.18c0 .53-.29.8-.8.8h-.39c-.53 0-.8-.27-.8-.8V25.8h-4.64c-.53 0-.8-.27-.8-.81z"/></svg>