<svg class="icon" xmlns="http://www.w3.org/2000/svg" viewBox="0 0 50 50"><path d="M34.24 33.74v-2.41h-6.58c.57-.52 1.09-1.09 1.56-1.7h5.87c.47 0 .85.38.85.85v3.26a2.49 2.49 0 0 1 1.49 3.18 2.49 2.49 0 0 1-3.18 1.49 2.49 2.49 0 0 1-1.49-3.18c.25-.7.79-1.24 1.48-1.49zm-.59-17.47h-3.77c-.37-.6-.78-1.17-1.24-1.7h4.16v-1.93a2.495 2.495 0 0 1-1.52-3.17c.46-1.29 1.87-1.97 3.17-1.52s1.97 1.87 1.52 3.17a2.48 2.48 0 0 1-1.47 1.5v2.8c0 .48-.38.85-.85.85zm9.3-4.33c0-1.37-1.12-2.48-2.49-2.48s-2.48 1.12-2.48 2.49c0 .98.58 1.87 1.48 2.26v4.97h-8.31c.16.56.27 1.13.35 1.7h8.8c.47 0 .85-.38.85-.85v-5.7c1.07-.3 1.8-1.28 1.8-2.39zm-.04 13.78a2.495 2.495 0 0 0-2.46-2.51c-1.06-.01-2.02.66-2.37 1.66h-6.72c-.12.58-.28 1.14-.48 1.7h7.2a2.49 2.49 0 0 0 3.17 1.52c1-.36 1.67-1.31 1.66-2.37z" /><path d="M28.62 21.08c-.54-3.03-2.84-5.4-5.86-6.05-.78-.17-2.22-.18-2.92-.03-.63.14-1.08.28-1.6.5l-.36.15-.36-.15c-1.22-.52-2.66-.73-3.95-.57-3.25.42-5.84 2.9-6.43 6.16-.12.69-.12 1.89.01 2.58.16.86.35 1.35 1.6 4.05.68 1.48 1.13 2.47 1.14 2.59-.09.35-.13 1.46-.08 2.36.18 3.77 1.15 7.24 2.41 8.62.36.4.67.61 1.12.76.78.26 1 .08 1.4-.74.31-.63.66-1.65 1.38-4.01.41-1.36 1.38-4.52 1.75-4.52h.02c.4.11 1.21 2.68 2 5.31.94 3.12 1.35 3.74 1.59 3.93.1.09.27.15.4.15.28 0 .86-.22 1.12-.4 1.39-.96 2.49-4.02 2.87-8 .09-1 .11-2.83.02-3.31l-.05-.26L27 27.7c1.27-2.75 1.39-3.04 1.58-3.93.16-.72.17-1.93.04-2.69zm-4.26 9.37c.1.31.15 1.64.07 2.7-.24 3.23-1.09 6.19-2.05 7.2-.04.05-.08.08-.12.12-.3-.67-1.15-3.46-1.49-4.57-.77-2.51-1.23-3.59-1.75-4.11-.36-.36-.62-.47-1.14-.47-.5 0-.77.1-1.1.43-.63.61-1 1.53-2.31 5.8-.52 1.7-.84 2.6-.98 2.9-.04-.04-.08-.08-.11-.12-.97-1.02-1.76-3.75-2.05-7.12-.08-.98-.03-2.51.07-2.78l.11-.31-1.27-2.75c-.7-1.51-1.3-2.84-1.37-3.04-.54-1.46-.42-3.26.31-4.68a6.068 6.068 0 0 1 4.63-3.24c.46-.06 1.37-.02 1.88.08.54.11.9.24 1.55.54l.65.31.7-.33c.33-.16.83-.35 1.09-.42a5.985 5.985 0 0 1 7.38 4.29c.17.67.22 1.83.1 2.48-.14.76-.33 1.21-1.62 4l-1.27 2.74.09.35z"/></svg>