<svg class="icon" xmlns="http://www.w3.org/2000/svg" viewBox="0 0 50 50"><path d="M28.03 20.5c.49-.35.98-.52 1.47-.53.49 0 1 .17 1.51.53.14.1.34.06.44-.08a.31.31 0 0 0-.08-.44c-.62-.43-1.25-.65-1.87-.64-.62 0-1.23.22-1.83.64-.14.1-.18.3-.08.44.1.15.3.18.44.08zM20.58 19.34c-.62 0-1.23.22-1.83.64-.14.1-.18.3-.08.44.1.14.3.18.44.08.49-.35.98-.52 1.47-.53.49 0 1 .17 1.51.53.14.1.34.06.44-.08a.32.32 0 0 0-.08-.44c-.62-.43-1.25-.65-1.87-.64z" /><circle cx="20.6" cy="21.53" r=".7" /><circle cx="29.52" cy="21.53" r=".7" /><path d="M35.59 34.01h-3.27c-.74-.85-1.74-2.02-2.01-3.08.17-.25.33-.52.47-.81 1.18-1.36 2.16-3.02 2.87-4.68.86-.58 1.49-1.26 1.91-1.95.36-.59.56-1.2.59-1.78.04-.6-.11-1.18-.43-1.68-.22-.33-.52-.62-.9-.87.01-.06.03-.12.03-.17.18-.52.26-1.04.26-1.55.03-2.19-1.23-5.75-2.65-7.38-.43-.5-.91-.92-1.43-1.27-3.48-2.4-9.74-2.16-12.91.63-2.09 1.84-2.77 3.97-2.87 6.63-.04 1.02-.06 1.88.11 2.79-.1-.01-.2.01-.29.07-.31.2-.56.46-.75.79-.18.31-.29.68-.35 1.1-.11.82-.06 1.71.21 2.52.24.72.66 1.38 1.29 1.86.22.16.45.31.71.43.18.08.37.16.57.22.45 1.1.96 2.1 1.51 2.99.5.8 1.05 1.5 1.65 2.1l.03.05c-.21.56-.6 1.16-1.05 1.71-.41.5-.85.96-1.25 1.33h-3.25c-3.82 0-6.91 3.09-6.91 6.91v.56c0 .76.61 1.37 1.37 1.37h32.26c.76 0 1.37-.61 1.37-1.37v-.56c.02-3.82-3.07-6.91-6.89-6.91zm-1.1-13.9c.18.14.32.29.44.46.21.32.3.69.28 1.09-.03.43-.18.88-.45 1.34-.36.6-.94 1.19-1.71 1.7-.09.05-.17.13-.22.24-.34.82-.75 1.63-1.22 2.41.06-.46.09-.95.08-1.46l1.62-3.64c.51-.78.91-1.53 1.18-2.14zm-16.91 5.14a.498.498 0 0 0-.34-.29 2.92 2.92 0 0 1-.63-.22c-.19-.09-.37-.19-.53-.32-.46-.35-.77-.85-.96-1.4-.22-.66-.26-1.4-.17-2.08.04-.3.12-.55.23-.75.11-.19.25-.34.43-.45l.01-.01c.14.42.34.85.6 1.32.18.34.38.67.6 1l1.73 3.79v.08c.01.62.08 1.21.17 1.75-.41-.74-.79-1.54-1.14-2.42zm-.32-4.3v-2.08c2.03-1.2 10.1-.92 11-7.49.75 3.45 2.23 5.75 4.48 6.79v3.26l-1.73 3.87c-1.97-.92-3.94-1.3-5.9-1.24-1.95.05-3.9.52-5.84 1.27l-2.01-4.38zm2.17 5.44c.07-.07.12-.16.13-.26 1.86-.72 3.71-1.17 5.57-1.21 1.9-.05 3.8.32 5.7 1.25-.01 1.21-.24 2.27-.62 3.16-.1.12-.2.23-.31.35-.96 1.06-2.05 1.91-3.22 2.34-1.14.42-2.36.45-3.64-.08-.69-.29-1.4-.75-2.12-1.39a6.47 6.47 0 0 1-.53-.52c-.51-.97-.86-2.18-.96-3.64zM25 37.11c-2.58 0-6-1.21-6.58-2.79.4-.38.84-.84 1.24-1.33.34-.41.64-.84.87-1.27a6.3 6.3 0 0 0 1.95 1.5c.86.42 1.8.61 2.73.58.93-.03 1.86-.26 2.7-.71.65-.34 1.25-.8 1.78-1.38.44.95 1.24 1.89 1.88 2.62-.59 1.58-4 2.78-6.57 2.78z" /></svg>