<svg xmlns="http://www.w3.org/2000/svg" viewBox="0 0 43.41 46.66"><path d="M9.6 15.76c-1.39 0-2.52 1.13-2.52 2.52 0 1.39 1.13 2.52 2.52 2.52 1.39 0 2.52-1.13 2.52-2.52 0-1.39-1.13-2.52-2.52-2.52zM21.7 15.76c-1.39 0-2.52 1.13-2.52 2.52 0 1.39 1.13 2.52 2.52 2.52 1.39 0 2.52-1.13 2.52-2.52 0-1.39-1.13-2.52-2.52-2.52zM33.81 20.8c1.39 0 2.52-1.13 2.52-2.52 0-1.39-1.13-2.52-2.52-2.52s-2.52 1.13-2.52 2.52c0 1.39 1.13 2.52 2.52 2.52zM9.6 25.78c-1.39 0-2.52 1.13-2.52 2.52 0 1.39 1.13 2.52 2.52 2.52 1.39 0 2.52-1.13 2.52-2.52 0-1.39-1.13-2.52-2.52-2.52zM21.7 25.78c-1.39 0-2.52 1.13-2.52 2.52 0 1.39 1.13 2.52 2.52 2.52 1.39 0 2.52-1.13 2.52-2.52 0-1.39-1.13-2.52-2.52-2.52zM33.81 30.82c1.39 0 2.52-1.13 2.52-2.52 0-1.39-1.13-2.52-2.52-2.52s-2.52 1.13-2.52 2.52c0 1.39 1.13 2.52 2.52 2.52zM9.6 35.8c-1.39 0-2.52 1.13-2.52 2.52 0 1.39 1.13 2.52 2.52 2.52 1.39 0 2.52-1.13 2.52-2.52 0-1.39-1.13-2.52-2.52-2.52zM21.7 35.8c-1.39 0-2.52 1.13-2.52 2.52 0 1.39 1.13 2.52 2.52 2.52 1.39 0 2.52-1.13 2.52-2.52 0-1.39-1.13-2.52-2.52-2.52zM33.81 40.84c1.39 0 2.52-1.13 2.52-2.52 0-1.39-1.13-2.52-2.52-2.52s-2.52 1.13-2.52 2.52c0 1.39 1.13 2.52 2.52 2.52zM9.18 8.14c.86 0 1.56-.7 1.56-1.56V1.56A1.55 1.55 0 0 0 9.18 0c-.86 0-1.56.7-1.56 1.56v5.01c0 .87.7 1.57 1.56 1.57zM21.7 8.14c.86 0 1.56-.7 1.56-1.56V1.56A1.55 1.55 0 0 0 21.7 0c-.86 0-1.57.7-1.57 1.56v5.01c.01.87.71 1.57 1.57 1.57z" /><path d="M37.04 4.09v2.48c0 1.55-1.26 2.82-2.82 2.82-1.55 0-2.82-1.26-2.82-2.82V4.09h-6.89v2.48c0 1.55-1.26 2.82-2.82 2.82-1.55 0-2.82-1.26-2.82-2.82V4.09H12v2.48c0 1.55-1.26 2.82-2.82 2.82-1.55 0-2.82-1.26-2.82-2.82V4.09H0v42.57h43.41V4.09h-6.37zm3.86 19.2V44.16H2.5V11.6h38.4v11.69z" /><path d="M34.22 8.14c.86 0 1.57-.7 1.57-1.56V1.56c0-.86-.7-1.56-1.57-1.56-.86 0-1.56.7-1.56 1.56v5.01c0 .87.7 1.57 1.56 1.57z" /></svg>