<svg class="icon" xmlns="http://www.w3.org/2000/svg" viewBox="0 0 50 50"><path d="M19.92 21.37c.41-.29.82-.44 1.22-.44.41 0 .83.14 1.26.44.16.11.39.07.5-.09.11-.16.07-.39-.09-.5-.56-.39-1.12-.57-1.67-.57-.56 0-1.1.2-1.64.57-.16.12-.2.34-.08.5.12.17.34.2.5.09zM27.65 21.37c.41-.29.82-.44 1.22-.44.41 0 .83.14 1.26.44.16.11.39.07.5-.09.11-.16.07-.39-.09-.5-.56-.39-1.12-.57-1.67-.57-.56 0-1.1.2-1.64.57-.16.12-.2.34-.08.5.12.17.34.2.5.09zM21.16 21.88c-.39 0-.7.31-.7.7 0 .39.31.7.7.7s.7-.31.7-.7c0-.38-.31-.7-.7-.7z" /><circle cx="28.89" cy="22.58" r=".7" /><path d="M35.59 34.94h-3.96c.01-.01.02-.01.03-.02-.57-.58-1.02-1.23-1.46-1.88-.1-.14-.2-.29-.3-.43 1.1-1.09 1.95-2.46 2.78-3.83l2.26-3.73.03-.06c.53-1.2.7-2.09.55-2.71-.14-.57-.5-.92-1.05-1.08l.12-5.15c-.15-2.09-.84-3.68-1.94-4.87-2.2-2.38-7.3-5.26-10.45-4.94-.65.06.51 2.08-.12 2.26-.99.28-1.95.7-2.81 1.25-1.57 1-2.84 2.46-3.35 4.27-.12.43-.2.86-.25 1.29-.08 1.81-.04 3.96.09 5.68-.18.07-.34.15-.48.25-.31.21-.53.48-.68.79-.14.3-.21.65-.19 1.03.02.81.4 1.8 1.13 2.88l1.99 3.16c.6.96 1.23 1.93 1.96 2.79-.18.51-.45 1.26-.75 1.95-.18.42-.38.81-.55 1.09h-3.78c-3.82 0-6.91 3.09-6.91 6.91v.56c0 .76.61 1.37 1.37 1.37h32.26c.76 0 1.37-.61 1.37-1.37v-.56c0-3.8-3.09-6.9-6.91-6.9zm-8.45-1.92c-.44.23-.92.39-1.4.48-.25.03-.52.05-.79.05-.55 0-1.06-.08-1.53-.21-.18-.06-.36-.13-.53-.22-1.66-.8-2.99-2.67-3.14-5.7 1.74-.69 3.48-1.11 5.21-1.16 1.73-.04 3.47.3 5.2 1.14-.04 2.83-1.34 4.74-3.02 5.62zm6.3-10.82h.27c.42.02.66.13.72.35.1.37-.06 1.01-.47 1.96l-2.23 3.68c-.4.66-.81 1.32-1.23 1.94.3-.87.47-1.87.45-2.99 0-.05-.01-.1-.03-.14 0-.01.01-.02.01-.03l2.15-4.75c.02 0 .04 0 .05-.01.11 0 .21-.01.31-.01zm-14.96 6.31-1.99-3.16-.01-.01c-.61-.91-.93-1.7-.95-2.3-.01-.21.03-.38.09-.53.06-.13.16-.25.29-.33.2-.13.48-.22.84-.25l2.21 5.13c-.01.04-.01.08-.01.12.03 1.02.18 1.93.42 2.73-.31-.47-.61-.94-.89-1.4zm-.89-6.64-.43-3.94c6.01-2.48 10.26 1.74 15.94.84l-.66 2.91-2.2 4.87c-1.77-.82-3.54-1.15-5.31-1.1-1.77.05-3.54.47-5.3 1.14l-2.04-4.72zM25 38.05c-2.65 0-5.49-1.27-5.9-2.91.15-.28.31-.59.46-.93.23-.53.45-1.09.62-1.57.07.07.14.13.21.2 1.19 1.09 2.64 1.82 4.56 1.83 1.78 0 3.15-.57 4.28-1.46.08.12.16.23.23.34.42.61.84 1.22 1.37 1.8-.57 1.53-3.29 2.7-5.83 2.7z" /></svg>