<svg class="quote-left" xmlns="http://www.w3.org/2000/svg" viewBox="0 0 24 24"><path d="M9.8 6.4a1 1 0 0 1-.2 1.4c-1.564 1.173-2.461 2.314-2.973 3.31A3.5 3.5 0 1 1 4 14.558a7.566 7.566 0 0 1 .508-3.614C5.105 9.438 6.272 7.796 8.4 6.2a1 1 0 0 1 1.4.2Zm7.6-.2a1 1 0 0 1 1.2 1.6c-1.564 1.173-2.461 2.314-2.973 3.31A3.5 3.5 0 1 1 13 14.558a7.567 7.567 0 0 1 .508-3.614c.598-1.506 1.764-3.148 3.892-4.744ZM7.5 13a1.5 1.5 0 0 0-1.492 1.348L6 14.51A1.5 1.5 0 1 0 7.5 13Zm9 0a1.5 1.5 0 0 0-1.492 1.348L15 14.51A1.5 1.5 0 1 0 16.5 13Z"/></svg>