<svg class="icon" xmlns="http://www.w3.org/2000/svg" viewBox="0 0 50 50"><path d="M15.55 9.59c-2.86 0-5.18 2.32-5.18 5.18 0 2.59 1.92 4.72 4.4 5.1v4.15c0 .06.02.11.03.17-.93.31-1.6 1.18-1.6 2.21v11.65c0 1.29 1.05 2.35 2.35 2.35a2.36 2.36 0 0 0 2.35-2.35V26.4c0-1.03-.67-1.9-1.6-2.21.01-.06.03-.11.03-.17v-4.15c2.48-.38 4.4-2.51 4.4-5.1 0-2.85-2.33-5.18-5.18-5.18zm.78 28.47a.781.781 0 0 1-1.56 0V26.41a.781.781 0 0 1 1.56 0v11.65zm-.78-19.67c-1.99 0-3.61-1.62-3.61-3.61s1.62-3.61 3.61-3.61c1.99 0 3.61 1.62 3.61 3.61s-1.62 3.61-3.61 3.61zm-.01-6.4c-.75 0-1.45.29-1.97.82-.53.53-.81 1.23-.81 1.98a2.8 2.8 0 0 0 2.8 2.79c.75 0 1.44-.29 1.97-.82s.81-1.23.81-1.98a2.8 2.8 0 0 0-2.8-2.79zm.88 3.66a1.23 1.23 0 1 1-1.742-1.738 1.23 1.23 0 0 1 1.742 1.738zm13.06-4.51a.824.824 0 0 0-1.16-.12L24 14.51a.83.83 0 0 0-.21 1.03l2.44 4.55v3.05c0 .06.02.12.03.18-.97.33-1.68 1.25-1.68 2.33v12.28c0 1.36 1.11 2.47 2.47 2.47s2.47-1.11 2.47-2.47V25.66c0-1.09-.71-2-1.68-2.33.01-.06.03-.11.03-.18v-3.26c0-.14-.03-.27-.1-.39l-2.22-4.14 3.79-3.07c.37-.28.43-.8.14-1.15zm-1.6 26.8c0 .45-.37.82-.82.82-.45 0-.82-.37-.82-.82V25.66c0-.45.37-.82.82-.82.45 0 .82.37.82.82v12.28zm10.07-14.62c.01-.06.03-.11.03-.18V12.06c0-.45-.37-.82-.82-.82h-3.5c-.45 0-.82.37-.82.82 0 .45.37.82.82.82h2.68v1.92h-2.68c-.45 0-.82.37-.82.82 0 .45.37.82.82.82h2.68v6.69c0 .06.02.12.03.18-.97.33-1.68 1.25-1.68 2.33v12.28c0 1.36 1.11 2.47 2.47 2.47s2.47-1.11 2.47-2.47V25.65c0-1.08-.71-1.99-1.68-2.33zm.04 14.62c0 .45-.37.82-.82.82-.45 0-.82-.37-.82-.82V25.66c0-.45.37-.82.82-.82.45 0 .82.37.82.82v12.28z" /></svg>