<svg class="icon" xmlns="http://www.w3.org/2000/svg" viewBox="0 0 50 50"><path d="M41.48 40.81H8.52c-1.17 0-2.12-.95-2.12-2.12V11.31c0-1.17.95-2.12 2.12-2.12h32.96c1.17 0 2.12.95 2.12 2.12v27.38c0 1.17-.95 2.12-2.12 2.12zM8.52 10.39c-.51 0-.92.41-.92.92v27.38c0 .51.41.92.92.92h32.96c.51 0 .92-.41.92-.92V11.31c0-.51-.41-.92-.92-.92H8.52z"/><path d="M21.99 14.78H10.64a.56.56 0 0 1-.56-.56v-.02c0-.31.25-.56.56-.56h11.35c.31 0 .56.25.56.56v.02c-.01.31-.26.56-.56.56zM15.06 17.28h-4.42a.56.56 0 0 1-.56-.56v-.02c0-.31.25-.56.56-.56h4.42c.31 0 .56.25.56.56v.02c0 .31-.25.56-.56.56zM20.63 17.28h-3.42a.56.56 0 0 1-.56-.56v-.02c0-.31.25-.56.56-.56h3.42c.31 0 .56.25.56.56v.02c0 .31-.25.56-.56.56zM18.98 19.78h-8.34a.56.56 0 0 1-.56-.56v-.02c0-.31.25-.56.56-.56h8.34c.31 0 .56.25.56.56v.02c0 .31-.25.56-.56.56z" /><path d="M28.92 36.1c-.13 0-.28-.03-.45-.09-.34-.12-.59-.28-.85-.58-.86-.94-1.5-3.17-1.62-5.66-.02-.42-.02-1.11.04-1.48-.08-.22-.41-.93-.68-1.51-.8-1.73-.93-2.05-1.03-2.64-.09-.48-.09-1.28-.01-1.75.4-2.21 2.16-3.89 4.36-4.17.89-.11 1.84.03 2.68.39l.09.04.09-.04c.84-.36 1.79-.5 2.67-.39 2.21.29 3.96 1.96 4.36 4.18.09.48.08 1.28-.01 1.76-.11.61-.27.98-1.03 2.63-.27.58-.59 1.29-.67 1.52.05.35.06 1 .04 1.48-.12 2.49-.75 4.72-1.62 5.66-.27.29-.51.46-.85.58-.72.24-1.02-.04-1.32-.65-.21-.42-.42-1.05-.89-2.58-.16-.52-.52-1.69-.77-2.31-.26.61-.62 1.79-.77 2.3-.47 1.53-.68 2.16-.89 2.58-.23.46-.46.73-.87.73zm2.56-6.86c.55 0 .81.51 1.65 3.27.44 1.44.66 2.08.84 2.44.04.09.07.15.1.18.02 0 .04-.01.06-.02.16-.05.27-.12.45-.32.7-.77 1.27-2.85 1.37-5.07.03-.6 0-1.2-.03-1.32-.06-.24-.04-.29.75-2.03.76-1.64.87-1.93.96-2.41.07-.36.07-1.05.01-1.41a4.181 4.181 0 0 0-3.55-3.41 4.31 4.31 0 0 0-2.18.32l-.46.19-.46-.19c-.68-.29-1.47-.41-2.19-.32-1.79.23-3.22 1.6-3.55 3.4-.07.36-.06 1.05.01 1.41.09.48.21.78.96 2.42.8 1.74.82 1.79.75 2.04-.03.11-.06.7-.03 1.31.11 2.22.67 4.3 1.37 5.07.18.2.3.26.46.32.02.01.04.01.06.02.02-.04.05-.1.1-.18.18-.36.4-1 .84-2.44.85-2.79 1.12-3.27 1.69-3.27h.02z"/></svg>