<svg xmlns="http://www.w3.org/2000/svg" viewBox="0 0 900 600"><path d="m0 241 25-11c25-11 75-33 125-39s100 4 150 20 100 38 150 32 100-40 150-54 100-8 150-1 100 15 125 19l25 4V0H0Z" style="fill-opacity:.3;fill:#edeffb"/><path d="m0 391 25-5c25-5 75-15 125-11s100 22 150 34 100 18 150 8 100-36 150-42 100 8 150 14 100 4 125 3l25-1V209l-25-4c-25-4-75-12-125-19s-100-13-150 1-100 48-150 54-100-16-150-32-100-26-150-20-100 28-125 39L0 239Z" style="fill-opacity:.3;fill:#dbe0f8"/><path d="m0 487 25 4c25 4 75 12 125 19s100 13 150 17 100 6 150-1 100-23 150-26 100 7 150 12 100 5 125 5h25V389l-25 1c-25 1-75 3-125-3s-100-20-150-14-100 32-150 42-100 4-150-8-100-30-150-34-100 6-125 11l-25 5Z" style="fill-opacity:.3;fill:rgba(201,208,244,.5)"/><path d="M0 601h900v-86h-25c-25 0-75 0-125-5s-100-15-150-12-100 19-150 26-100 5-150 1-100-10-150-17-100-15-125-19l-25-4Z" style="fill-opacity:.3;fill:#dbe0f8"/></svg>